#!OML:ASF H:\Swim 2\Project 1\Capture day 1\Session 1\male.ASF
:FULLY-SPECIFIED
:DEGREES
1429
root 2.05758 13.7304 10.0613 63.6707 7.49622 176.758
lowerback 38.026 -4.86809 -1.47043
upperback 6.13002 -6.10737 -5.79058
thorax -12.4192 -1.96726 -3.03526
lowerneck -6.34575 -8.23604 -5.45374
upperneck 33.0663 -13.2118 15.4385
head 13.7865 -2.8781 5.77887
rclavicle -6.36111e-015 -1.39149e-015
rhumerus -1399.1 -55.1047 733.935
rradius 41.8663
rwrist 744.229
rhand -30.123 14.0389
rfingers 7.12502
rthumb -3.43621 -15.9132
lclavicle -6.36111e-015 -1.39149e-015
lhumerus -1609.34 -3.33087 -121.954
lradius 26.9274
lwrist -1633.11
lhand -10.0232 0.219077
lfingers 7.12502
lthumb 15.9613 29.5814
rfemur 40.6293 14.1609 20.4969
rtibia 15.5653
rfoot 35.0724 7.9331
rtoes 16.4302
lfemur 17.4629 1.0145 -35.1607
ltibia 28.2891
lfoot 14.1861 20.715
ltoes 31.9493
1430
root 2.09379 13.7369 10.0807 64.02 7.24407 176.58
lowerback 37.5421 -4.75136 -1.41542
upperback 5.98446 -6.02268 -6.00196
thorax -12.4453 -1.96803 -3.33705
lowerneck -6.19883 -8.16049 -5.49141
upperneck 33.009 -13.0911 15.4099
head 13.7074 -2.85243 5.78698
rclavicle 4.6118e-014 8.34896e-015
rhumerus -1401.47 -55.0203 735.085
rradius 42.8039
rwrist 743.076
rhand -30.4248 14.4251
rfingers 7.12502
rthumb -3.72773 -15.522
lclavicle 4.6118e-014 8.34896e-015
lhumerus -1610.5 -3.95978 -122.631
lradius 26.9589
lwrist -1633.67
lhand -10.286 0.147675
lfingers 7.12502
lthumb 15.7083 29.5301
rfemur 40.9063 14.3151 20.2498
rtibia 15.7946
rfoot 37.237 8.44025
rtoes 16.0481
lfemur 16.7499 0.89137 -35.1237
ltibia 27.6496
lfoot 13.6369 20.2869
ltoes 30.8738
1431
root 2.13191 13.7432 10.0971 64.3434 7.02422 176.406
lowerback 37.1206 -4.65039 -1.42562
upperback 5.81845 -5.97235 -6.12509
thorax -12.4971 -1.98019 -3.49235
lowerneck -6.04099 -8.03896 -5.70062
upperneck 32.9373 -12.8833 15.3851
head 13.6189 -2.82113 5.83709
rclavicle -9.54166e-015 1.86858e-014
rhumerus -1403.51 -54.9827 735.952
rradius 43.7107
rwrist 742.134
rhand -30.863 15.0692
rfingers 7.12502
rthumb -4.15085 -14.8701
lclavicle -9.54166e-015 1.86858e-014
lhumerus -1611.54 -4.7689 -123.229
lradius 26.9646
lwrist -1634.03
lhand -10.4887 0.106657
lfingers 7.12502
lthumb 15.513 29.5043
rfemur 41.0346 14.4397 20.016
rtibia 16.2264
rfoot 39.0223 8.93506
rtoes 15.7537
lfemur 16.174 0.656419 -35.0783
ltibia 26.9687
lfoot 12.9764 19.8909
ltoes 29.9696
1432
root 2.17185 13.7488 10.1101 64.6523 6.83554 176.24
lowerback 36.6584 -4.5711 -1.46226
upperback 5.72327 -5.95049 -6.20699
thorax -12.5622 -2.00278 -3.53968
lowerneck -5.895 -7.88945 -5.98794
upperneck 32.8686 -12.6137 15.2974
head 13.5239 -2.78743 5.88091
rclavicle 4.6118e-014 1.68967e-014
rhumerus -1405.37 -54.9545 736.682
rradius 44.5761
rwrist 741.265
rhand -31.4903 15.8855
rfingers 7.12502
rthumb -4.75658 -14.0411
lclavicle 4.6118e-014 1.68967e-014
lhumerus -1612.5 -5.63161 -123.743
lradius 26.9476
lwrist -1634.15
lhand -10.617 0.0757036
lfingers 7.12502
lthumb 15.3895 29.4829
rfemur 41.0022 14.5292 19.7919
rtibia 16.8536
rfoot 40.3469 9.42289
rtoes 15.5554
lfemur 15.7247 0.249652 -35.0511
ltibia 26.2555
lfoot 12.1959 19.5605
ltoes 29.2644
1433
root 2.21281 13.7534 10.1216 64.9882 6.67487 176.082
lowerback 36.2701 -4.50548 -1.5245
upperback 5.53923 -5.95215 -6.2295
thorax -12.627 -2.03514 -3.53408
lowerneck -5.74868 -7.71699 -6.28363
upperneck 32.7676 -12.2975 15.1548
head 13.4021 -2.74913 5.90442
rclavicle -4.77083e-015 3.35946e-014
rhumerus -1407.17 -54.9185 737.34
rradius 45.4152
rwrist 740.399
rhand -32.2207 16.6686
rfingers 7.12502
rthumb -5.46183 -13.241
lclavicle -4.77083e-015 3.35946e-014
lhumerus -1613.42 -6.48484 -124.209
lradius 26.9207
lwrist -1634.13
lhand -10.6552 0.0698608
lfingers 7.12502
lthumb 15.3526 29.4799
rfemur 40.7761 14.5829 19.5647
rtibia 17.6374
rfoot 41.211 9.90858
rtoes 15.3868
lfemur 15.3555 -0.370054 -35.061
ltibia 25.5285
lfoot 11.3419 19.3086
ltoes 28.7391
1434
root 2.25441 13.7567 10.1319 65.3654 6.54235 175.933
lowerback 35.8608 -4.4572 -1.59572
upperback 5.34565 -5.97577 -6.21455
thorax -12.6879 -2.0779 -3.47423
lowerneck -5.60072 -7.52273 -6.58115
upperneck 32.6436 -11.9363 14.9539
head 13.2579 -2.70414 5.90621
rclavicle -1.74931e-014 4.77083e-015
rhumerus -1408.92 -54.8638 737.944
rradius 46.2316
rwrist 739.457
rhand -32.9947 17.3182
rfingers 7.12502
rthumb -6.20908 -12.5709
lclavicle -1.74931e-014 4.77083e-015
lhumerus -1614.3 -7.21907 -124.594
lradius 26.8771
lwrist -1633.96
lhand -10.5965 0.0627021
lfingers 7.12502
lthumb 15.4092 29.4684
rfemur 40.362 14.6087 19.3421
rtibia 18.5216
rfoot 41.688 10.3059
rtoes 15.2527
lfemur 15.044 -1.21056 -35.1106
ltibia 24.8111
lfoot 10.4903 19.1183
ltoes 28.3573
1435
root 2.29604 13.7589 10.1417 65.776 6.43776 175.79
lowerback 35.4388 -4.4274 -1.68394
upperback 5.1446 -6.02422 -6.15698
thorax -12.7438 -2.13123 -3.34917
lowerneck -5.46046 -7.29872 -6.89151
upperneck 32.502 -11.5222 14.7134
head 13.098 -2.64654 5.89809
rclavicle -7.95139e-015 -6.95746e-015
rhumerus -1410.58 -54.8079 738.444
rradius 47.027
rwrist 738.433
rhand -33.7056 17.7609
rfingers 7.12502
rthumb -6.8954 -12.1068
lclavicle -7.95139e-015 -6.95746e-015
lhumerus -1615.14 -7.74117 -124.87
lradius 26.809
lwrist -1633.66
lhand -10.4558 0.0395589
lfingers 7.12502
lthumb 15.5447 29.4348
rfemur 39.7955 14.6115 19.1308
rtibia 19.4285
rfoot 41.8786 10.5562
rtoes 15.1536
lfemur 14.7867 -2.22899 -35.1891
ltibia 24.1365
lfoot 9.7048 18.9949
ltoes 28.1338
